<?xml version="1.0" encoding="UTF-8"?>
<svg xmlns="http://www.w3.org/2000/svg" width="120" height="42" baseProfile="tiny-ps" version="1.2" viewBox="0 0 12000 4200">
  <path fill="#aab2ab" d="M225 102c-68 0-123 55-123 123v2721h432a1775 1775 0 00 3110 0h8254V225c0-68-55-123-123-123zm4949 237c325 0 600 112 824 336a1119 1119 0 01 337 823 1100 1100 0 01-331 814 1146 1146 0 01-830 346c-316 0-588-115-816-343-228-228-342-500-342-817s114-590 342-823a1105 1105 0 01 816-336zm2609 0c325 0 600 112 824 336a1119 1119 0 01 337 823 1100 1100 0 01-331 815 1145 1145 0 01-830 345c-316 0-588-114-816-343-228-228-343-500-343-817s115-590 343-823a1106 1106 0 01 816-336zm2609 0c325 0 600 112 824 336a1119 1119 0 01 337 823 1100 1100 0 01-331 815 1146 1146 0 01-830 345c-316 0-588-114-816-343-228-228-342-500-342-817s114-590 342-823a1105 1105 0 01 816-336zm-8305 51a1510 1510 0 01 1110 454 1510 1510 0 01 454 1110c0 439-149 805-446 1100a1541 1541 0 01-1118 465 1500 1500 0 01-1099-462 1504 1504 0 01-460-1102 1530 1530 0 01 460-1111A1490 1490 0 01 2087 390Z"/>
  <path d="M225 0A225 225 0 00 0 225v3924c0 28 23 51 50 51h11900a50 50 0 00 50-50V224A225 225 0 00 11775 0Zm0 102h11550c68 0 123 55 123 123v2721H3643a1776 1776 0 01-3110 0h-430V225c0-68 55-123 123-123ZM8090 3258c37 0 71 6 104 16 32 10 61 26 87 46a249 249 0 01 95 177h-140a118 118 0 00-18-46 149 149 0 00-76-61 151 151 0 00-52-9c-32 6-60 10-83 20a156 156 0 00-56 56 224 224 0 00-25 73 362 362 0 00 0 165c6 27 16 50 30 70a160 160 0 00 141 70c44 0 80-13 104-40s40-63 45-108h140c-3 42-13 80-28 113a260 260 0 01-150 140 367 367 0 01-250-10 294 294 0 01-102-72 321 321 0 01-64-109 401 401 0 01-23-135c0-50 8-95 23-137a329 329 0 01 64-110c28-33 62-58 102-76 41-18 87-27 137-27zm-3594 17h312c32 0 60 3 87 8 26 6 48 15 67 28 18 12 33 30 43 50 10 20 15 47 15 78 0 33-7 61-23 83-15 23-37 40-67 55 42 12 73 32 93 62 20 30 30 64 30 106a174 174 0 01-72 146c-22 16-47 27-75 35a338 338 0 01-87 10h-328zm582 0h163l155 261 154-261h163l-246 408v254h-146v-258zm2028 0h145l276 444h2v-444h137v662H7520l-276-443h-1v443h-137zm2584 0h145l276 444h2v-444h136v662h-145l-276-443h-2v443H9690Zm687 0h286c43 0 83 7 120 20a260 260 0 01 158 163 460 460 0 01 4 277 263 263 0 01-150 176c-37 17-80 26-132 26h-286zm-5735 113v155h148c26 0 47-7 64-19 17-12 25-32 25-60a77 77 0 00-8-38 62 62 0 00-23-23 95 95 0 00-32-12 217 217 0 00-37-3zm5881 10v416h130c20 0 41-3 61-10s38-18 53-34c15-15 28-36 37-61a386 386 0 00 4-183 180 180 0 00-32-70 142 142 0 00-59-43c-24-10-54-15-90-15zm-5880 244v182h155a168 168 0 00 76-19 70 70 0 00 23-27 90 90 0 00 10-42c0-34-10-59-30-73a116 116 0 00-76-22"/>
  <path fill="#ffffff" d="M2091 672a1471 1471 0 00-255 23 1213 1213 0 00-235 70 1163 1163 0 00-210 118 1289 1289 0 00-193 164 1496 1496 0 00-168 202 1279 1279 0 00-121 220 1190 1190 0 00-73 230c-8 40-14 81-18 123a1350 1350 0 00 0 256 1197 1197 0 00 208 573c23 35 50 68 77 101a1479 1479 0 00 186 186 1333 1333 0 00 208 143 1193 1193 0 00 345 124c40 8 83 14 125 18a1377 1377 0 00 382-18 1215 1215 0 00 235-72c38-16 76-34 112-54a1280 1280 0 00 210-144 1556 1556 0 00 186-180 1146 1146 0 00 230-426 1267 1267 0 00 46-247 1490 1490 0 00 0-264 1327 1327 0 00-18-126 1197 1197 0 00-187-455 1291 1291 0 00-75-100 1401 1401 0 00-290-258 1187 1187 0 00-453-187c-40-7-83-13-125-17a1435 1435 0 00-130-6Zm-434 797a652 652 0 01 135 14c20 5 40 10 59 18a395 395 0 01 148 96 430 430 0 01 70 100l-210 105a292 292 0 00-33-55 195 195 0 00-40-40 162 162 0 00-49-24 183 183 0 00-55-8 204 204 0 00-90 17 161 161 0 00-65 52 292 292 0 00-39 87 420 420 0 00-10 57 620 620 0 00 0 130 430 430 0 00 25 104c7 15 14 28 23 40a161 161 0 00 63 52c13 6 27 10 42 13a257 257 0 00 112-4 183 183 0 00 97-68c12-17 23-37 33-60l191 102a594 594 0 01-36 57A444 444 0 01 1900 2380a409 409 0 01-109 46c-20 5-40 10-63 11a563 563 0 01-66 4c-35 0-68-3-100-8a472 472 0 01-90-24 413 413 0 01-243-250 525 525 0 01-27-96 694 694 0 01-8-108 652 652 0 01 32-200 421 421 0 01 100-154 457 457 0 01 70-57 423 423 0 01 162-66c30-5 60-8 93-8zm904 0a651 651 0 01 134 14c20 5 40 10 60 18a392 392 0 01 147 96 427 427 0 01 72 100l-210 105a300 300 0 00-33-55 197 197 0 00-40-40 158 158 0 00-46-24 174 174 0 00-54-8c-17 0-34 1-50 4a196 196 0 00-42 13 166 166 0 00-66 52 206 206 0 00-23 40c-6 14-12 30-16 47a410 410 0 00-10 57 634 634 0 00 10 187 272 272 0 00 40 87 166 166 0 00 65 52 266 266 0 00 155 10c20-7 38-15 54-27a189 189 0 00 43-42c18-17 29-37 38-60l195 102a593 593 0 01-36 57 504 504 0 01-40 50 442 442 0 01-94 75 409 409 0 01-110 46 400 400 0 01-62 11 560 560 0 01-66 4 594 594 0 01-100-8 472 472 0 01-90-24 414 414 0 01-148-97 405 405 0 01-55-70 434 434 0 01-40-84 526 526 0 01-24-95 696 696 0 01-8-108 664 664 0 01 32-200 420 420 0 01 96-154 440 440 0 01 327-130"/>
  <path d="M2087 390c-433 0-799 151-1099 454a1530 1530 0 00-461 1110c0 428 154 796 461 1103a1500 1500 0 00 1099 462c430 0 803-155 1118-466 297-294 446-660 446-1098s-150-810-454-1111a1510 1510 0 00-1110-454Zm4 282c355 0 657 124 906 373a1238 1238 0 01 374 910c0 360-123 658-368 896-258 255-562 383-912 383s-650-127-903-380a1230 1230 0 01-380-900c0-346 128-648 384-906a1210 1210 0 01 900-376zm-434 797c-130 0-238 44-326 131a480 480 0 00-130 354c0 152 42 270 127 357a450 450 0 00 337 129c182 0 319-81 410-243l-191-101c-39 90-104 135-195 135-138 0-207-92-207-278 0-186 70-278 207-278 78 0 136 42 175 127l207-105c-83-152-220-228-414-228zm904 0A440 440 0 00 2234 1600a484 484 0 00-129 354c0 152 43 270 127 357a450 450 0 00 337 129c182 0 318-81 410-243l-196-101c-36 90-100 135-192 135-140 0-210-92-210-278 0-186 70-278 216-278 76 0 133 42 172 127l210-105c-82-152-220-228-412-228"/>
  <path fill="#ffffff" d="M4497 3275v662h322c30 0 58-4 87-11 28-8 53-20 75-35a170 170 0 00 72-146c0-41-10-77-30-106-20-30-51-50-92-62 30-14 58-32 70-55 19-22 26-50 26-83 0-31-4-57-14-78a128 128 0 00-43-50 187 187 0 00-67-28 416 416 0 00-87-8zm146 113h137c13 0 25 1 37 3 12 2 23 6 32 12a62 62 0 01 23 23 77 77 0 01 8 38c0 28-8 48-25 60-17 12-38 19-64 19h-148zm0 254h160c30 0 56 7 75 22 20 14 30 39 30 72a90 90 0 01-10 43 70 70 0 01-23 27c-10 6-22 10-35 13h-197zm436-367 243 404v258h146v-254l246-408H5550l-154 261-155-261zm2028 0v662h137v-443h1l276 443h146v-662H7530v444h-2l-276-444zm984-17c-50 0-96 10-137 27-40 18-74 43-102 75a329 329 0 00-64 110 413 413 0 00-23 138 400 400 0 00 23 135 296 296 0 00 167 182c40 18 86 27 136 27 41 0 79-7 113-20a260 260 0 00 150-138c15-34 25-70 29-113h-141a190 190 0 01-46 114c-25 27-60 40-105 40-32 1-60-5-83-17a159 159 0 01-56-50 218 218 0 01-30-72 362 362 0 01 0-165c6-27 16-52 30-73a156 156 0 01 140-70 151 151 0 01 127 71c10 14 15 30 17 46h141a268 268 0 00-30-102 247 247 0 00-65-75 278 278 0 00-87-46 333 333 0 00-104-16Zm1600 17v662h136v-443h2l276 443h145v-662h-136v444h-2l-276-444zm687 0v662h286c50 0 95-9 133-26 37-17 68-40 93-70 25-30 44-64 56-105a460 460 0 00-4-278 283 283 0 00-63-102 260 260 0 00-96-60 342 342 0 00-119-21zm146 122h104c36 0 66 5 90 16 25 10 44 24 60 44 14 19 25 42 31 69a386 386 0 01-4 183 170 170 0 01-37 60 160 160 0 01-114 39h-130zM7786 547c-33 0-66 2-97 5a964 964 0 00-182 34 867 867 0 00-245 118 943 943 0 00-74 56 992 992 0 00-140 142l-60 80 444 198a277 277 0 01 75-117 300 300 0 01 78-53c14-7 30-13 45-18a428 428 0 01 100-18V795h134v179c23 0 47 3 70 7a496 496 0 01 221 100l-152 156a398 398 0 00-93-50 338 338 0 00-52-13 290 290 0 00-53-5c-14 0-30 0-46 4a172 172 0 00-45 14 106 106 0 00-20 12 78 78 0 00-14 15 71 71 0 00-14 45 50 50 0 00 10 30l148 65 100 45 187 83 594 264a955 955 0 00 22-120 1080 1080 0 00-10-320 910 910 0 00-52-175 875 875 0 00-87-160 951 951 0 00-57-75c-20-24-42-47-65-70a1042 1042 0 00-145-122 898 898 0 00-246-118 966 966 0 00-183-34 1100 1100 0 00-96-5zm-900 640a893 893 0 00-40 150 1002 1002 0 00 5 347 884 884 0 00 147 334c17 25 37 50 57 75a1098 1098 0 00 215 195 888 888 0 00 334 140 946 946 0 00 188 18c32 0 64-2 95-5a945 945 0 00 182-35 890 890 0 00 170-71 952 952 0 00 229-173 893 893 0 00 158-203l-437-195a302 302 0 01-111 180l-45 30a390 390 0 01-163 48v180h-133v-180a550 550 0 01-352-140l160-160c19 19 38 34 58 47a328 328 0 00 127 52 411 411 0 00 125 0c16-3 32-10 46-18a93 93 0 00 34-35l10-25 3-30a87 87 0 00-31-70l-110-50-140-61-182-82"/>
  <path d="M7783 339c-322 0-593 112-816 336a1134 1134 0 00-343 823c0 317 115 590 343 817 228 228 500 343 816 343 319 0 596-115 830-345a1100 1100 0 00 330-815c0-325-112-600-336-823-224-224-500-336-824-336zm3 208c263 0 486 93 670 280a910 910 0 01 279 671c0 88-10 170-30 248l-594-264-186-83-100-45-149-66a47 47 0 01-10-30c0-72 81-90 140-90 70 0 141 29 197 69l152-157a500 500 0 00-290-106V795H7730v179c-142 8-259 83-300 206l-440-198a1066 1066 0 01 129-156 899 899 0 01 663-279zm-900 640 592 263 183 82 138 62 110 49a87 87 0 01 32 70c0 88-76 114-144 114a350 350 0 01-258-104l-160 160a551 551 0 00 352 140V2200h133v-179c158-11 290-110 320-258l436 195a893 893 0 01-158 203c-192 190-417 284-677 284s-482-94-670-280a911 911 0 01-282-668c0-110 18-214 52-312"/>
  <path fill="#ffffff" d="M10395 547c-33 0-66 2-97 5a965 965 0 00-182 34 868 868 0 00-245 118 1023 1023 0 00-144 122 920 920 0 00-67 73 1022 1022 0 00-106 156 899 899 0 00-71 168 892 892 0 00-36 180 1000 1000 0 00 13 281 888 888 0 00 93 255 933 933 0 00 171 226l72 66a990 990 0 00 154 105 888 888 0 00 257 92 946 946 0 00 188 18c32 0 64-2 95-5a944 944 0 00 182-35 890 890 0 00 170-71 950 950 0 00 230-173 954 954 0 00 118-140 849 849 0 00 137-333c5-30 10-61 13-93a1103 1103 0 00 0-195 978 978 0 00-35-184 878 878 0 00-118-246 950 950 0 00-56-75 1031 1031 0 00-66-70 1042 1042 0 00-145-122 898 898 0 00-246-118 966 966 0 00-182-35 1100 1100 0 00-97-4zm-407 676h843v200h-840zm0 373h843v200h-840"/>
  <path d="M10392 339c-321 0-593 112-816 336a1134 1134 0 00-342 823c0 317 114 590 342 817 228 228 500 343 816 343 320 0 596-115 830-345 220-219 330-490 330-815s-111-600-336-823c-224-224-500-336-824-336zm3 208c263 0 486 93 670 280a909 909 0 01 279 671 880 880 0 01-273 664 931 931 0 01-676 284c-260 0-483-94-670-281a910 910 0 01-282-667c0-257 94-480 284-672a899 899 0 01 668-279"/>
  <path d="M9989 1223v200h842v-200zm0 373v200h842v-200"/>
  <path fill="#ffffff" d="M5177 547a900 900 0 00-668 279 925 925 0 00-285 672c0 257 94 480 282 667a915 915 0 00 670 280 930 930 0 00 677-283 884 884 0 00 273-664 910 910 0 00-279-672 908 908 0 00-670-280Zm-2 202a162 162 0 11 0 325 162 162 0 01 0-325zm-237 387h474c42 0 75 34 75 75v474h-132v562h-360v-562h-132v-474a75 75 0 01 75-75"/>
  <path d="M4938 1136a75 75 0 00-75 75v474h132v562h360v-562h132v-474a75 75 0 00-75-75zm237-387a162 162 0 10 0 325 162 162 0 00 0-325"/>
  <path d="M5174 339c-322 0-593 112-816 336a1134 1134 0 00-342 823c0 317 114 590 342 817 228 228 500 343 816 343 319 0 596-115 830-345a1100 1100 0 00 330-815c0-325-112-600-336-823-224-224-500-336-824-336Zm3 208c263 0 486 93 670 280a910 910 0 01 280 671c0 267-92 488-274 664a930 930 0 01-676 284c-260 0-483-94-670-281a910 910 0 01-283-667c0-257 95-480 285-672a900 900 0 01 668-279"/>
</svg>
